<svg width="48" height="48" viewBox="0 0 48 48" fill="none" xmlns="http://www.w3.org/2000/svg">
<g clip-path="url(#clip0)">
<path d="M24 36C29.5229 36 34.0001 31.5228 34.0001 26C34.0001 20.4771 29.5229 15.9999 24 15.9999C18.4772 15.9999 14 20.4771 14 26C14 31.5228 18.4772 36 24 36Z" fill="#262A4D"/>
<path d="M44 10.0001H37.6572C36.8555 10.0001 36.1026 9.68759 35.5352 9.12115L31.8789 5.4649C30.9346 4.52056 29.6787 4.00006 28.3428 4.00006H19.6572C18.3213 4.00006 17.0654 4.52056 16.1211 5.4649L12.4648 9.12115C11.8974 9.68759 11.1445 10.0001 10.3428 10.0001H4.00003C1.79391 10.0001 0 11.794 0 14V40C0 42.206 1.79391 44 4.00003 44H44.0001C46.2061 44 48.0001 42.2061 48.0001 40V14C48 11.794 46.2061 10.0001 44 10.0001ZM24 38C17.3828 38 12 32.6172 12 26C12 19.3828 17.3828 14 24 14C30.6172 14 36 19.3828 36 26C36 32.6172 30.6172 38 24 38ZM40 20C38.8975 20 38.0001 19.1025 38.0001 18C38.0001 16.8975 38.8975 16.0001 40 16.0001C41.1025 16.0001 42 16.8975 42 18C42 19.1025 41.1025 20 40 20Z" fill="#262A4D"/>
</g>
<defs>
<clipPath id="clip0">
<rect width="48" height="48" fill="white"/>
</clipPath>
</defs>
</svg>
