<svg width="48" height="48" viewBox="0 0 48 48" fill="none" xmlns="http://www.w3.org/2000/svg">
<g clip-path="url(#clip0)">
<path d="M24.8676 37.9544C23.4719 37.9329 22.1262 37.4311 21.0572 36.5336L14.0178 30.3337C12.9101 29.2987 11.2163 29.2168 10.0138 30.14L0.00371677 37.5022V42.2812C-0.0682259 43.5632 0.91289 44.6607 2.19488 44.7327C2.26089 44.7364 2.32714 44.7373 2.39328 44.7353H37.8484C39.2692 44.7353 40.69 43.702 40.69 42.2812V29.7525L27.9674 37.1148C27.0322 37.677 25.9588 37.9677 24.8676 37.9544Z" fill="#262A4D"/>
<path d="M24.3504 25.4255C25.9198 25.4255 27.192 24.1533 27.192 22.5839C27.192 21.0145 25.9198 19.7423 24.3504 19.7423C22.781 19.7423 21.5088 21.0145 21.5088 22.5839C21.5088 24.1533 22.781 25.4255 24.3504 25.4255Z" fill="#262A4D"/>
<path d="M47.4065 8.31146C46.9942 7.74976 46.3574 7.39598 45.6628 7.34271L10.4659 3.27411C9.77971 3.21663 9.09489 3.39921 8.5285 3.79081C8.02688 4.22642 7.68583 4.81766 7.55974 5.46997L6.97852 10.5073H37.8485C40.7916 10.5741 43.1714 12.9254 43.2734 15.8675V38.6647C43.2734 38.5356 43.8546 38.4064 44.1129 38.148C44.6477 37.7281 44.9577 37.0842 44.9525 36.4044L47.9877 10.1843C48.0548 9.50704 47.8452 8.8315 47.4065 8.31146Z" fill="#262A4D"/>
<path d="M37.8486 13.0905H2.39347C0.97266 13.0905 0.00390625 14.4466 0.00390625 15.8674V34.2732L8.52862 28.0733C10.6926 26.4681 13.6862 26.603 15.6972 28.3962L22.8011 34.596C23.8723 35.5055 25.4024 35.6351 26.6113 34.9189L40.6901 26.7171V15.8674C40.5925 14.3513 39.3666 13.1534 37.8486 13.0905ZM24.3511 28.0087C21.3551 28.0087 18.9262 25.5799 18.9262 22.5838C18.9262 19.5878 21.3549 17.1589 24.3511 17.1589C27.3471 17.1589 29.776 19.5877 29.776 22.5838C29.776 25.5799 27.3472 28.0087 24.3511 28.0087Z" fill="#262A4D"/>
</g>
<defs>
<clipPath id="clip0">
<rect width="48" height="48" fill="white"/>
</clipPath>
</defs>
</svg>
