<svg width="40" height="40" viewBox="0 0 40 40" fill="none" xmlns="http://www.w3.org/2000/svg">
<path d="M3.33325 20.0001C3.33325 29.2001 10.7999 36.6667 19.9999 36.6667C29.1999 36.6667 36.6666 29.2001 36.6666 20.0001C36.6666 10.8001 29.1999 3.3334 19.9999 3.3334C10.7999 3.3334 3.33325 10.8001 3.33325 20.0001ZM31.6666 19.9001L28.3166 19.9001L28.3166 20.0001C28.3166 22.1334 27.4999 24.2667 25.8833 25.9001C24.5252 27.2567 22.741 28.1035 20.8313 28.2978C18.9216 28.4921 17.0034 28.022 15.3999 26.9667L17.2333 25.1334C19.4499 26.3167 22.2499 26.0167 24.1166 24.1501C25.2833 22.9834 25.8333 21.4501 25.7999 19.9167L22.2333 19.9167L26.9499 15.2001L31.6666 19.9001ZM24.5999 13.0501L22.7666 14.8834C20.5499 13.7001 17.7499 14.0001 15.8833 15.8667C15.3378 16.4078 14.9051 17.0517 14.6104 17.7613C14.3157 18.4708 14.1649 19.2318 14.1666 20.0001L14.1666 20.1001L17.7499 20.1001L13.0499 24.8167L8.33325 20.1001L11.6999 20.1001C11.6666 17.9334 12.4499 15.7501 14.1166 14.1001C16.9499 11.2667 21.3666 10.9167 24.5999 13.0501Z" fill="#3B5FDE"/>
</svg>
